<svg id="Layer_1" data-name="Layer 1" xmlns="http://www.w3.org/2000/svg" xmlns:xlink="http://www.w3.org/1999/xlink" viewBox="0 0 419.32 390.36"><defs><style>.cls-1,.cls-4{fill:#9bd2a5;}.cls-1,.cls-2,.cls-20,.cls-21,.cls-22,.cls-23,.cls-3,.cls-6,.cls-7,.cls-8,.cls-9{stroke:#263238;}.cls-1,.cls-10,.cls-2,.cls-20,.cls-21,.cls-22,.cls-23,.cls-3,.cls-6,.cls-7,.cls-8,.cls-9{stroke-linecap:round;stroke-linejoin:round;}.cls-11,.cls-2{fill:#263238;}.cls-15,.cls-3,.cls-5{fill:#fff;}.cls-5{opacity:0.7;}.cls-10,.cls-22,.cls-23,.cls-6,.cls-7,.cls-8,.cls-9{fill:none;}.cls-7{stroke-width:2px;}.cls-8{stroke-dasharray:1 3;}.cls-9{stroke-dasharray:1 2.99;}.cls-10{stroke:#fff;}.cls-12{clip-path:url(#clip-path);}.cls-13,.cls-17{fill-opacity:0.7;}.cls-13{opacity:0.3;}.cls-14{clip-path:url(#clip-path-2);}.cls-16{clip-path:url(#clip-path-3);}.cls-17{opacity:0.2;}.cls-18{clip-path:url(#clip-path-4);}.cls-19{clip-path:url(#clip-path-5);}.cls-20{fill:#5f5c5c;}.cls-21{fill:#7f7c7c;}.cls-22{stroke-dasharray:0.98 2.93;}.cls-23{stroke-dasharray:1 3;}</style><clipPath id="clip-path" transform="translate(-88.28 -225.32)"><path class="cls-1" d="M448.2,590.16c-6.77,11-41.12,16.21-59.87,15.72s-72.7-26-76.36-31.44c-3.39-5-11.72-21.57,1.12-31.58a24.88,24.88,0,0,1,3.46-2.24c8.79-4.76,67.25,10.25,67.25,10.25s3.62-2.29,4.95-2.12c4.08.52,7,3.82,15.24,6.17,5.77,1.65,21.52-4.69,31.58.76a13.88,13.88,0,0,1,3.06,2.22C448,566.88,455,579.13,448.2,590.16Z"/></clipPath><clipPath id="clip-path-2" transform="translate(-88.28 -225.32)"><path class="cls-2" d="M379,599.72l17.51,13.75a201.83,201.83,0,0,0,25.12-3.75h0c8.3-1.92,15.55-4.68,15.95-8.46.61-5.74-5.53-7.31-12.82-7.09-1.37,0-2.76.14-4.17.29-11.68,1.25-26.51-5.2-26.51-5.2Z"/></clipPath><clipPath id="clip-path-3" transform="translate(-88.28 -225.32)"><path class="cls-3" d="M395.28,605.14c-3.16.52.31,7,4.59,5S398.43,604.63,395.28,605.14Z"/></clipPath><clipPath id="clip-path-4" transform="translate(-88.28 -225.32)"><path class="cls-3" d="M421.58,609.71c8.3-1.92,15.55-4.68,15.95-8.46.61-5.74-5.53-7.31-12.82-7.09C424.39,594.47,417.32,601.31,421.58,609.71Z"/></clipPath><clipPath id="clip-path-5" transform="translate(-88.28 -225.32)"><path class="cls-2" d="M368.18,600.25l-18.87,11.83a199.22,199.22,0,0,1-24.58-6.37h0c-8.06-2.78-15-6.28-15-10.08,0-5.77,6.26-6.69,13.49-5.7,1.36.17,2.74.42,4.12.72,11.48,2.47,26.91-2.39,26.91-2.39Z"/></clipPath></defs><title>developer</title><path class="cls-4" d="M115.76,599.47H327q1.29-2.06,2.59-4.06c22.73-34.58,59.1-59.24,98.83-70.8,17.8-5.19,37.08-8.27,51.39-20.06,14.71-12.14,21.47-31.5,24.4-50.35,3.54-22.82,1.63-48.4-13.86-65.53-18.2-20.12-48.67-22.37-72.38-35.56-40.79-22.7-56.6-74.39-93.71-102.71-23.43-17.88-55.09-24.81-83.4-20.89-40.19,5.56-78,32.5-89.36,72A99.79,99.79,0,0,0,148,336.88c1.82,23.55,6.88,47.4,2.1,70.53-5.26,25.5-21.85,47-31.76,71.09-12.34,30-14,63.61-8.76,95.58A163.92,163.92,0,0,0,115.76,599.47Z" transform="translate(-88.28 -225.32)"/><path class="cls-5" d="M115.76,599.47H327q1.29-2.06,2.59-4.06c22.73-34.58,59.1-59.24,98.83-70.8,17.8-5.19,37.08-8.27,51.39-20.06,14.71-12.14,21.47-31.5,24.4-50.35,3.54-22.82,1.63-48.4-13.86-65.53-18.2-20.12-48.67-22.37-72.38-35.56-40.79-22.7-56.6-74.39-93.71-102.71-23.43-17.88-55.09-24.81-83.4-20.89-40.19,5.56-78,32.5-89.36,72A99.79,99.79,0,0,0,148,336.88c1.82,23.55,6.88,47.4,2.1,70.53-5.26,25.5-21.85,47-31.76,71.09-12.34,30-14,63.61-8.76,95.58A163.92,163.92,0,0,0,115.76,599.47Z" transform="translate(-88.28 -225.32)"/><line class="cls-6" x1="0.5" y1="374.15" x2="418.82" y2="374.15"/><path class="cls-6" d="M325.75,281.19v-15.7l-11.76-1a32.31,32.31,0,0,0-2.91-7.05l7.59-9-11.1-11.1-9,7.59A32.6,32.6,0,0,0,291.5,242l-1-11.76h-15.7l-1,11.76a32.6,32.6,0,0,0-7,2.91l-9-7.59-11.1,11.1,7.59,9a32.31,32.31,0,0,0-2.91,7.05l-11.76,1v15.7l11.76,1a32,32,0,0,0,2.91,7l-7.59,9,11.1,11.1,9-7.6a32.11,32.11,0,0,0,7,2.91l1,11.76h15.7l1-11.76a32.11,32.11,0,0,0,7.05-2.91l9,7.6,11.1-11.1-7.59-9a32,32,0,0,0,2.91-7Zm-43.11,10.4a18.25,18.25,0,1,1,18.24-18.25A18.25,18.25,0,0,1,282.64,291.59Z" transform="translate(-88.28 -225.32)"/><path class="cls-6" d="M494.47,434.65v-7.53l-5.64-.49a15.41,15.41,0,0,0-1.39-3.38l3.64-4.32-5.32-5.33-4.33,3.64a15.92,15.92,0,0,0-3.38-1.39l-.48-5.64H470l-.49,5.64a15.92,15.92,0,0,0-3.38,1.39l-4.33-3.64-5.32,5.33,3.64,4.32a15.41,15.41,0,0,0-1.39,3.38l-5.64.49v7.53l5.64.48a15.21,15.21,0,0,0,1.39,3.38l-3.64,4.33,5.32,5.32,4.33-3.64a15.44,15.44,0,0,0,3.38,1.4l.49,5.64h7.53l.48-5.64a15.44,15.44,0,0,0,3.38-1.4l4.33,3.64,5.32-5.32-3.64-4.33a15.21,15.21,0,0,0,1.39-3.38Zm-20.67,5a8.75,8.75,0,1,1,8.75-8.75A8.75,8.75,0,0,1,473.8,439.63Z" transform="translate(-88.28 -225.32)"/><path class="cls-6" d="M488.81,297.6a20.07,20.07,0,0,0,.53-4.62,20.54,20.54,0,0,0-25.89-19.82,19.69,19.69,0,0,0-36.81,8.44,16.27,16.27,0,0,0-3-.29,16.09,16.09,0,0,0-16,14.28,9,9,0,0,0,.19,17.92h75.29a9,9,0,0,0,5.66-15.91Z" transform="translate(-88.28 -225.32)"/><line class="cls-6" x1="359.14" y1="81.32" x2="359.14" y2="102.07"/><line class="cls-6" x1="359.14" y1="68.87" x2="359.14" y2="77.17"/><line class="cls-6" x1="359.14" y1="61.12" x2="359.14" y2="65.55"/><polyline class="cls-6" points="355.22 99.64 359.14 104.49 363.06 99.64"/><path class="cls-6" d="M259.42,541a20.53,20.53,0,0,0-25.36-24.44A19.7,19.7,0,0,0,197.24,525a16,16,0,0,0-19,14,9,9,0,0,0,.2,17.92h75.29A9,9,0,0,0,259.42,541Z" transform="translate(-88.28 -225.32)"/><line class="cls-6" x1="129.75" y1="327.64" x2="129.75" y2="306.89"/><line class="cls-6" x1="129.75" y1="340.09" x2="129.75" y2="331.79"/><line class="cls-6" x1="129.75" y1="347.84" x2="129.75" y2="343.4"/><polyline class="cls-6" points="133.66 309.32 129.75 304.47 125.83 309.32"/><path class="cls-1" d="M12,52.38H263.44a4.24,4.24,0,0,1,4.24,4.24V68.47a0,0,0,0,1,0,0H7.75a0,0,0,0,1,0,0V56.62A4.24,4.24,0,0,1,12,52.38Z"/><rect class="cls-3" x="19.12" y="71.45" width="262.71" height="184.87"/><path class="cls-3" d="M374.14,285.75a4,4,0,1,1-4-4A4,4,0,0,1,374.14,285.75Z" transform="translate(-88.28 -225.32)"/><path class="cls-3" d="M360,285.75a4,4,0,1,1-4-4A4,4,0,0,1,360,285.75Z" transform="translate(-88.28 -225.32)"/><path class="cls-3" d="M345.82,285.75a4,4,0,1,1-4-4A4,4,0,0,1,345.82,285.75Z" transform="translate(-88.28 -225.32)"/><line class="cls-7" x1="273.88" y1="79.38" x2="263.47" y2="79.38"/><line class="cls-7" x1="273.88" y1="83.6" x2="263.47" y2="83.6"/><line class="cls-7" x1="273.88" y1="87.82" x2="263.47" y2="87.82"/><line class="cls-7" x1="37.32" y1="188.46" x2="116.05" y2="188.46"/><line class="cls-7" x1="37.32" y1="194.67" x2="116.05" y2="194.67"/><line class="cls-7" x1="37.32" y1="201" x2="99.39" y2="201"/><line class="cls-6" x1="204.27" y1="73.54" x2="204.27" y2="74.04"/><line class="cls-8" x1="204.27" y1="77.03" x2="204.27" y2="251.26"/><line class="cls-6" x1="204.27" y1="252.76" x2="204.27" y2="253.26"/><line class="cls-6" x1="22.29" y1="214.86" x2="22.79" y2="214.86"/><line class="cls-9" x1="25.78" y1="214.86" x2="275.82" y2="214.86"/><line class="cls-6" x1="277.31" y1="214.86" x2="277.81" y2="214.86"/><rect class="cls-3" x="202.54" y="213.14" width="3.45" height="3.45"/><path class="cls-1" d="M213.76,225.82H164.45a2.17,2.17,0,0,0-2.17,2.17v22.95a2.17,2.17,0,0,0,2.17,2.17h22.13l2.53,9.05,2.52-9.05h22.13a2.17,2.17,0,0,0,2.17-2.17V228A2.17,2.17,0,0,0,213.76,225.82Z" transform="translate(-88.28 -225.32)"/><line class="cls-7" x1="82.2" y1="7.07" x2="119.45" y2="7.07"/><line class="cls-7" x1="82.2" y1="11.79" x2="119.45" y2="11.79"/><line class="cls-7" x1="82.2" y1="16.51" x2="119.45" y2="16.51"/><line class="cls-7" x1="82.2" y1="21.23" x2="110.28" y2="21.23"/><rect class="cls-2" x="51.71" y="244.08" width="53.66" height="33.63"/><rect class="cls-1" x="51.71" y="244.08" width="53.66" height="5.11"/><line class="cls-10" x1="57.19" y1="253.5" x2="70.9" y2="253.5"/><line class="cls-10" x1="64.04" y1="257.33" x2="87.78" y2="257.33"/><line class="cls-10" x1="61.01" y1="260.89" x2="68" y2="260.89"/><line class="cls-10" x1="64.04" y1="265.11" x2="80.03" y2="265.11"/><line class="cls-10" x1="57.19" y1="268.93" x2="70.9" y2="268.93"/><line class="cls-6" x1="190.5" y1="181.72" x2="144.43" y2="181.72"/><path class="cls-6" d="M279.66,428.34s0-21.4-23.92-21.4-23.91,21.4-23.91,21.4" transform="translate(-88.28 -225.32)"/><circle class="cls-1" cx="191.39" cy="203.02" r="2.02"/><path class="cls-1" d="M229.81,428.34a2,2,0,1,1,2,2A2,2,0,0,1,229.81,428.34Z" transform="translate(-88.28 -225.32)"/><rect class="cls-1" x="277.89" y="405.16" width="3.54" height="3.54" transform="translate(471.05 588.55) rotate(180)"/><rect class="cls-1" x="253.97" y="405.16" width="3.54" height="3.54" transform="translate(423.21 588.55) rotate(180)"/><rect class="cls-1" x="230.05" y="405.16" width="3.54" height="3.54" transform="translate(375.37 588.55) rotate(180)"/><path class="cls-1" d="M154.22,342.67V335.6l-5.3-.46a14,14,0,0,0-1.31-3.17L151,327.9l-5-5L142,326.32a14.78,14.78,0,0,0-3.18-1.31l-.45-5.3h-7.08l-.45,5.3a14.58,14.58,0,0,0-3.18,1.31l-4.06-3.42-5,5L122,332a14,14,0,0,0-1.31,3.17l-5.3.46v7.07l5.3.46A14.22,14.22,0,0,0,122,346.3l-3.42,4.06,5,5,4.06-3.42a15.09,15.09,0,0,0,3.18,1.31l.45,5.29h7.08l.45-5.29A15.31,15.31,0,0,0,142,352l4.06,3.42,5-5-3.42-4.06a14.22,14.22,0,0,0,1.31-3.17Zm-19.42,4.68a8.22,8.22,0,1,1,8.22-8.22A8.22,8.22,0,0,1,134.8,347.35Z" transform="translate(-88.28 -225.32)"/><path class="cls-1" d="M178.25,358.53v-4.84l-3.62-.31a9.92,9.92,0,0,0-.9-2.17l2.34-2.79L172.65,345l-2.78,2.34a10.21,10.21,0,0,0-2.18-.9l-.31-3.62h-4.84l-.31,3.62a9.92,9.92,0,0,0-2.17.9L157.27,345l-3.42,3.42,2.34,2.79a9.92,9.92,0,0,0-.9,2.17l-3.62.31v4.84l3.62.31a10.21,10.21,0,0,0,.9,2.18l-2.34,2.78,3.42,3.42,2.78-2.34a10.21,10.21,0,0,0,2.18.9l.31,3.62h4.84l.31-3.62a10.21,10.21,0,0,0,2.18-.9l2.78,2.34,3.42-3.42L173.73,361a10.21,10.21,0,0,0,.9-2.18ZM165,361.74a5.63,5.63,0,1,1,5.63-5.63A5.62,5.62,0,0,1,165,361.74Z" transform="translate(-88.28 -225.32)"/><line class="cls-7" x1="214.15" y1="226.62" x2="252.88" y2="226.62"/><line class="cls-7" x1="214.15" y1="232.83" x2="252.88" y2="232.83"/><line class="cls-7" x1="214.15" y1="239.16" x2="236.23" y2="239.16"/><path class="cls-1" d="M251.4,467.05H231a5,5,0,0,1-5-5h0a5,5,0,0,1,5-5H251.4a5,5,0,0,1,5,5h0A5,5,0,0,1,251.4,467.05Z" transform="translate(-88.28 -225.32)"/><path class="cls-1" d="M289.39,467.05H269a5,5,0,0,1-5-5h0a5,5,0,0,1,5-5h20.39a5,5,0,0,1,5,5h0A5,5,0,0,1,289.39,467.05Z" transform="translate(-88.28 -225.32)"/><rect class="cls-3" x="216.98" y="134.45" width="43.24" height="43.24"/><line class="cls-3" x1="216.98" y1="134.45" x2="260.22" y2="177.69"/><line class="cls-3" x1="260.22" y1="134.45" x2="216.98" y2="177.69"/><rect class="cls-2" x="253.52" y="108.77" width="53.66" height="33.63"/><rect class="cls-1" x="253.52" y="108.77" width="53.66" height="5.11"/><line class="cls-10" x1="258.99" y1="118.19" x2="272.71" y2="118.19"/><line class="cls-10" x1="265.85" y1="122.01" x2="289.59" y2="122.01"/><line class="cls-10" x1="262.82" y1="125.58" x2="269.8" y2="125.58"/><line class="cls-10" x1="265.85" y1="129.79" x2="281.84" y2="129.79"/><line class="cls-10" x1="258.99" y1="133.62" x2="272.71" y2="133.62"/><polygon class="cls-3" points="233.94 85.37 233.94 95.46 229.49 99.91 219.4 99.91 219.4 85.37 233.94 85.37"/><polygon class="cls-3" points="233.94 95.46 229.49 99.91 229.49 95.46 233.94 95.46"/><polygon class="cls-3" points="79.31 163.4 79.31 173.49 74.86 177.94 64.77 177.94 64.77 163.4 79.31 163.4"/><polygon class="cls-3" points="79.31 173.49 74.86 177.94 74.86 173.49 79.31 173.49"/><polygon class="cls-3" points="24.36 225.56 24.36 235.65 19.91 240.1 9.82 240.1 9.82 225.56 24.36 225.56"/><polygon class="cls-3" points="24.36 235.65 19.91 240.1 19.91 235.65 24.36 235.65"/><path class="cls-3" d="M294.65,389.38c-5.28.45-12-5.87-12-5.87a1.19,1.19,0,0,1-1.89-.24c-.86-1.24-4.59-4.1-4.8-6.59s4.2-6.5,4.2-6.5c-3.4.93-3.76-1.06-3.76-1.06s5.71-4.72,7.71-4.85c.78,0,4.19,1.91,7.48,4.56,3.44,2.76,9.89,12.52,9.89,12.52s21.86,15.86,27.38,19.93c7.29,5.36,15.93,14.86,15.93,14.86s29,13.08,37,20.27L370.94,462s-26.37-17.67-29-22.15-5.28-1.79-7.91-4.72-5.17-6.28-5.17-6.28a44.58,44.58,0,0,1-12.55-9.12c-6.17-6.33-11.6-16-15-21.81A36,36,0,0,0,294.65,389.38Z" transform="translate(-88.28 -225.32)"/><path class="cls-3" d="M296.26,385.64s-7.86-1.91-8.54-7.1a9.72,9.72,0,0,0-1.69-3.63s-7.35-.36-6.88-3.35l9.79-.86a17.06,17.06,0,0,1,8.54,7.17" transform="translate(-88.28 -225.32)"/><path class="cls-6" d="M282.64,383.51a3.14,3.14,0,0,0,.33-2.12s2.16-.39,1.92-2.31c0,0,3.21-.39,1.14-4.17" transform="translate(-88.28 -225.32)"/><path class="cls-6" d="M284.89,379.08s-4.3-3.19-4.79-4.64" transform="translate(-88.28 -225.32)"/><path class="cls-6" d="M283,381.39s-4.59-2.79-4.67-4.43" transform="translate(-88.28 -225.32)"/><path class="cls-6" d="M284,367s-1.46,2.62-3.87,3.17" transform="translate(-88.28 -225.32)"/><path class="cls-6" d="M283.3,368a13,13,0,0,1,2.16,1.43" transform="translate(-88.28 -225.32)"/><path class="cls-11" d="M450.9,456.6A235.83,235.83,0,0,0,416,444.94c-17.57-4.11-46-7.78-46-7.78s7.82,79.8,5.76,84.6-14.42,20.92-14.42,20.92,66.89,26.08,78.55,28.3,5.58-38.24,5.58-38.24S457.76,481.3,450.9,456.6Z" transform="translate(-88.28 -225.32)"/><path class="cls-3" d="M426.9,448s1.59,3-2.59,4.57c-10.83,4-22.37.47-21.14-3.77.47-1.62,3.15,0,3-6.05a7.37,7.37,0,0,0-.73-2.66,27.47,27.47,0,0,0-2.75-4.61,57.26,57.26,0,0,0-3.71-4.63s17.19-11,29.94,0C428.9,430.88,424.16,433.28,426.9,448Z" transform="translate(-88.28 -225.32)"/><path class="cls-4" d="M448.2,590.16c-6.77,11-41.12,16.21-59.87,15.72s-72.7-26-76.36-31.44c-3.39-5-11.72-21.57,1.12-31.58a24.88,24.88,0,0,1,3.46-2.24c8.79-4.76,67.25,10.25,67.25,10.25s3.62-2.29,4.95-2.12c4.08.52,7,3.82,15.24,6.17,5.77,1.65,21.52-4.69,31.58.76a13.88,13.88,0,0,1,3.06,2.22C448,566.88,455,579.13,448.2,590.16Z" transform="translate(-88.28 -225.32)"/><g class="cls-12"><path class="cls-13" d="M435.57,555.68c-10.31-.69-19.5,1.47-25.92,5.26-7.61,4.5-43.55,21.81-43.55,21.81.08-1.86,2.08-5.61,2.08-5.61-3.38-3-12.22-5.35-12.22-5.35-6.85-5.85-34-23.3-42.87-28.93a24.88,24.88,0,0,1,3.46-2.24c8.79-4.76,67.25,10.25,67.25,10.25s3.62-2.29,4.95-2.12c4.08.52,7,3.82,15.24,6.17C409.76,556.57,425.51,550.23,435.57,555.68Z" transform="translate(-88.28 -225.32)"/></g><path class="cls-6" d="M448.2,590.16c-6.77,11-41.12,16.21-59.87,15.72s-72.7-26-76.36-31.44c-3.39-5-11.72-21.57,1.12-31.58a24.88,24.88,0,0,1,3.46-2.24c8.79-4.76,67.25,10.25,67.25,10.25s3.62-2.29,4.95-2.12c4.08.52,7,3.82,15.24,6.17,5.77,1.65,21.52-4.69,31.58.76a13.88,13.88,0,0,1,3.06,2.22C448,566.88,455,579.13,448.2,590.16Z" transform="translate(-88.28 -225.32)"/><path class="cls-3" d="M437.65,600.12l.86,3.77s-2.29,6.53-12.41,7.59-16.09,3.31-21,3.6a41.93,41.93,0,0,1-7.69-.12l-1-1.49Z" transform="translate(-88.28 -225.32)"/><path class="cls-11" d="M379,599.72l17.51,13.75a201.83,201.83,0,0,0,25.12-3.75h0c8.3-1.92,15.55-4.68,15.95-8.46.61-5.74-5.53-7.31-12.82-7.09-1.37,0-2.76.14-4.17.29-11.68,1.25-26.51-5.2-26.51-5.2Z" transform="translate(-88.28 -225.32)"/><g class="cls-14"><path class="cls-13" d="M437.54,601.13a53.84,53.84,0,0,0-9.75,4.79s-16.27,8.37-41.27-.25l-7.58-5.95L394,589.25s14.83,6.45,26.51,5.19c1.41-.14,2.8-.25,4.17-.27C431.94,593.94,438,595.48,437.54,601.13Z" transform="translate(-88.28 -225.32)"/></g><path class="cls-6" d="M379,599.72l17.51,13.75a201.83,201.83,0,0,0,25.12-3.75h0c8.3-1.92,15.55-4.68,15.95-8.46.61-5.74-5.53-7.31-12.82-7.09-1.37,0-2.76.14-4.17.29-11.68,1.25-26.51-5.2-26.51-5.2Z" transform="translate(-88.28 -225.32)"/><path class="cls-15" d="M395.28,605.14c-3.16.52.31,7,4.59,5S398.43,604.63,395.28,605.14Z" transform="translate(-88.28 -225.32)"/><g class="cls-16"><path class="cls-17" d="M401.2,609.11a66.77,66.77,0,0,1-6.8-1.19c-.61-1.26-.47-2.56.88-2.78C397.93,604.71,402.38,607.15,401.2,609.11Z" transform="translate(-88.28 -225.32)"/></g><path class="cls-6" d="M395.28,605.14c-3.16.52.31,7,4.59,5S398.43,604.63,395.28,605.14Z" transform="translate(-88.28 -225.32)"/><path class="cls-15" d="M421.58,609.71c8.3-1.92,15.55-4.68,15.95-8.46.61-5.74-5.53-7.31-12.82-7.09C424.39,594.47,417.32,601.31,421.58,609.71Z" transform="translate(-88.28 -225.32)"/><g class="cls-18"><path class="cls-13" d="M437.54,601.13a53.84,53.84,0,0,0-9.75,4.79,32.78,32.78,0,0,1-6.85,2.29c-2.8-7.7,3.46-13.76,3.77-14C431.94,593.94,438,595.48,437.54,601.13Z" transform="translate(-88.28 -225.32)"/></g><path class="cls-6" d="M421.58,609.71c8.3-1.92,15.55-4.68,15.95-8.46.61-5.74-5.53-7.31-12.82-7.09C424.39,594.47,417.32,601.31,421.58,609.71Z" transform="translate(-88.28 -225.32)"/><path class="cls-3" d="M415.66,602.58h0a.87.87,0,0,0,.91-.82,11.71,11.71,0,0,1,3-6.6.86.86,0,0,0,0-1.22.87.87,0,0,0-1.22,0,13.23,13.23,0,0,0-3.47,7.71A.88.88,0,0,0,415.66,602.58Z" transform="translate(-88.28 -225.32)"/><path class="cls-3" d="M412.19,602.78h.08a.87.87,0,0,0,.88-.85,12.86,12.86,0,0,1,2.65-6.85.87.87,0,0,0-1.34-1.1,14.34,14.34,0,0,0-3,7.92A.85.85,0,0,0,412.19,602.78Z" transform="translate(-88.28 -225.32)"/><path class="cls-3" d="M408,602.35h0a.88.88,0,0,0,.94-.79c.26-3,2.85-6.92,2.87-7a.86.86,0,0,0-.23-1.2.88.88,0,0,0-1.21.23c-.11.18-2.85,4.29-3.16,7.78A.87.87,0,0,0,408,602.35Z" transform="translate(-88.28 -225.32)"/><path class="cls-3" d="M404.12,601.93a1,1,0,0,0,.24,0,.87.87,0,0,0,.71-1c-.62-3.68,2.8-6.84,2.84-6.87a.87.87,0,0,0-1.17-1.29c-.17.16-4.16,3.82-3.38,8.44A.85.85,0,0,0,404.12,601.93Z" transform="translate(-88.28 -225.32)"/><path class="cls-3" d="M399.86,600.91a1,1,0,0,0,.29,0,.88.88,0,0,0,.65-1c-.76-3.28,2.48-7,2.51-7a.87.87,0,0,0-.07-1.22.88.88,0,0,0-1.23.07c-.15.18-3.86,4.41-2.9,8.57A.86.86,0,0,0,399.86,600.91Z" transform="translate(-88.28 -225.32)"/><path class="cls-3" d="M309.76,594.48l-1.26,3.66s1.6,6.73,11.55,8.85,15.66,5,20.46,5.78a41.9,41.9,0,0,0,7.66.69l1.14-1.37Z" transform="translate(-88.28 -225.32)"/><path class="cls-11" d="M368.18,600.25l-18.87,11.83a199.22,199.22,0,0,1-24.58-6.37h0c-8.06-2.78-15-6.28-15-10.08,0-5.77,6.26-6.69,13.49-5.7,1.36.17,2.74.42,4.12.72,11.48,2.47,26.91-2.39,26.91-2.39Z" transform="translate(-88.28 -225.32)"/><g class="cls-19"><path class="cls-13" d="M368.18,600.25l-11.1,7a44.66,44.66,0,0,1-22.53-15.87,74.62,74.62,0,0,0,19.73-3.09Z" transform="translate(-88.28 -225.32)"/></g><path class="cls-6" d="M368.18,600.25l-18.87,11.83a199.22,199.22,0,0,1-24.58-6.37h0c-8.06-2.78-15-6.28-15-10.08,0-5.77,6.26-6.69,13.49-5.7,1.36.17,2.74.42,4.12.72,11.48,2.47,26.91-2.39,26.91-2.39Z" transform="translate(-88.28 -225.32)"/><path class="cls-3" d="M324.73,605.7c-8.06-2.78-15-6.28-15-10.08,0-5.77,6.26-6.69,13.49-5.7C323.54,590.26,329.85,597.8,324.73,605.7Z" transform="translate(-88.28 -225.32)"/><path class="cls-3" d="M331.36,599.23h-.05a.86.86,0,0,1-.81-.91,11.72,11.72,0,0,0-2.28-6.87.87.87,0,0,1,.16-1.22.86.86,0,0,1,1.21.16,13.31,13.31,0,0,1,2.64,8A.87.87,0,0,1,331.36,599.23Z" transform="translate(-88.28 -225.32)"/><path class="cls-3" d="M334.79,599.81h-.07a.86.86,0,0,1-.79-.93,12.88,12.88,0,0,0-1.92-7.1.87.87,0,0,1,1.45-.95,14.45,14.45,0,0,1,2.2,8.19A.88.88,0,0,1,334.79,599.81Z" transform="translate(-88.28 -225.32)"/><path class="cls-3" d="M339,599.81h0a.87.87,0,0,1-.85-.89c0-3-2.11-7.18-2.13-7.22a.87.87,0,0,1,.36-1.17.86.86,0,0,1,1.17.36c.1.18,2.4,4.57,2.33,8.06A.86.86,0,0,1,339,599.81Z" transform="translate(-88.28 -225.32)"/><path class="cls-3" d="M342.91,599.81a.59.59,0,0,1-.23,0,.87.87,0,0,1-.61-1.06c1-3.6-2.07-7.1-2.1-7.13a.86.86,0,0,1,.07-1.22.87.87,0,0,1,1.22.06c.16.17,3.74,4.23,2.48,8.75A.86.86,0,0,1,342.91,599.81Z" transform="translate(-88.28 -225.32)"/><path class="cls-3" d="M347.25,599.23a.9.9,0,0,1-.28,0,.88.88,0,0,1-.54-1.1c1.1-3.19-1.73-7.22-1.76-7.26a.87.87,0,0,1,.2-1.21.88.88,0,0,1,1.21.2c.14.2,3.38,4.79,2,8.83A.86.86,0,0,1,347.25,599.23Z" transform="translate(-88.28 -225.32)"/><path class="cls-3" d="M351.37,603.93c3.08.84-1,6.9-5.1,4.5S348.28,603.08,351.37,603.93Z" transform="translate(-88.28 -225.32)"/><path class="cls-1" d="M315.7,571.79c4.64,6.49,18.36,13.66,32,19.57a64.88,64.88,0,0,0,8.58,11.21c8.42,8.66,11.86,3.81,11.86,3.81s5.31-.59,13.17-1.67a3.71,3.71,0,0,0,4,2.23c1-.16,3-1.62,5.21-3.55,19.82-3,46.74-8,54-13.82" transform="translate(-88.28 -225.32)"/><path class="cls-6" d="M436.76,559.44c-3.43-3.77-6.86-3.94-14.06-3.43,0,0-18.79,6-31.89,13.89s-32.24,16.27-32.24,16.27-5.83-1.69-9.89,0c0,0-2.84.22-.94,5.19" transform="translate(-88.28 -225.32)"/><path class="cls-6" d="M445.51,582s.09,5.81-8.14,9.83" transform="translate(-88.28 -225.32)"/><path class="cls-6" d="M354.63,557.73s13,9.4,15.6,15.6a54,54,0,0,1,7.39,3.81" transform="translate(-88.28 -225.32)"/><path class="cls-6" d="M371.17,565.55a14.77,14.77,0,0,1,.46,8.4" transform="translate(-88.28 -225.32)"/><path class="cls-6" d="M368.18,559.44A23.85,23.85,0,0,1,370,562.7" transform="translate(-88.28 -225.32)"/><path class="cls-6" d="M386.69,558.59s4.35,5.81,5.43,10.53" transform="translate(-88.28 -225.32)"/><path class="cls-6" d="M410.92,593.74a37.47,37.47,0,0,0,4.83-.59" transform="translate(-88.28 -225.32)"/><path class="cls-6" d="M370.11,589.57a231.93,231.93,0,0,0,37.4,4.3" transform="translate(-88.28 -225.32)"/><path class="cls-3" d="M458.1,501.39s-2.35,41-5.11,43.35-7.15,3.09-15.42,3.77-44.85,2.94-44.85,2.94l-3.91-11.76s19.45-2,28.08-5.15a146.37,146.37,0,0,1,19.87-5.26s-1.63-10.31-1.63-14.74V493.65" transform="translate(-88.28 -225.32)"/><path class="cls-11" d="M450.9,456.6c8.92,5.49,11.55,18.18,8.46,45.27,0,0,2.63,3.2-1.26,4.8,0,0-14.56-5.44-21.34-1.69s-5-5.19-5-5.19-2.79-24.92,3.39-29.42" transform="translate(-88.28 -225.32)"/><path class="cls-10" d="M434.33,466.55s-8.58,8.92-1,31.44a36.48,36.48,0,0,0-1,5.6c0,1.5,2.07,2.28,2.07,2.28" transform="translate(-88.28 -225.32)"/><path class="cls-10" d="M424.3,481.64s.63,11,7.44,15.78" transform="translate(-88.28 -225.32)"/><path class="cls-10" d="M426.51,456.1s-13.29,5.09-23.87-.55c-6.26-3.34-3.68-8.71-3.68-8.71" transform="translate(-88.28 -225.32)"/><path class="cls-20" d="M330.94,559.46h72.33a19.31,19.31,0,0,0,4.85-.62l14.26-3.74a.93.93,0,0,0,.69-.9h0a.92.92,0,0,0-.92-.92H328a.93.93,0,0,0-.93.92v1.35A3.92,3.92,0,0,0,330.94,559.46Z" transform="translate(-88.28 -225.32)"/><path class="cls-21" d="M323.77,555.87h72.54a1.73,1.73,0,0,0,1.69-2.33l-13.46-52.33a3.18,3.18,0,0,0-2.89-2.33H309.11a1.73,1.73,0,0,0-1.69,2.33l13.45,52.33A3.2,3.2,0,0,0,323.77,555.87Z" transform="translate(-88.28 -225.32)"/><line class="cls-6" x1="223.39" y1="275.43" x2="222.02" y2="275.43"/><line class="cls-6" x1="234.02" y1="275.43" x2="226.93" y2="275.43"/><path class="cls-6" d="M394.56,549.25l-11.88-46.18a3.19,3.19,0,0,0-2.89-2.33H323.9" transform="translate(-88.28 -225.32)"/><line class="cls-6" x1="307.32" y1="327.96" x2="307.02" y2="326.81"/><path class="cls-3" d="M345.6,528.69a6.25,6.25,0,0,0,.25,1.26c.93,3.15,3.88,5.06,6.59,4.26s4.16-4,3.23-7.15-3.88-5.06-6.59-4.27a5,5,0,0,0-.92.39A5.58,5.58,0,0,1,345.6,528.69Z" transform="translate(-88.28 -225.32)"/><path class="cls-11" d="M377.62,430.63c-6.28-.69-9.71-6.65-13.48-7.59a42.09,42.09,0,0,1-6.19-2s-1.3-4.54-3.24-2.95-4.52,35.49-2,34.43,2.51,2.93,2.51,2.93L378.53,476l19.55-34.6S383.9,431.31,377.62,430.63Z" transform="translate(-88.28 -225.32)"/><polyline class="cls-6" points="99.39 84.38 99.39 83.88 99.89 83.88"/><line class="cls-22" x1="102.83" y1="83.88" x2="187.43" y2="83.88"/><polyline class="cls-6" points="188.89 83.88 189.39 83.88 189.39 84.38"/><line class="cls-23" x1="189.39" y1="87.38" x2="189.39" y2="141.88"/><polyline class="cls-6" points="189.39 143.38 189.39 143.88 188.89 143.88"/><line class="cls-22" x1="185.96" y1="143.88" x2="101.36" y2="143.88"/><polyline class="cls-6" points="99.89 143.88 99.39 143.88 99.39 143.38"/><line class="cls-23" x1="99.39" y1="140.38" x2="99.39" y2="85.88"/><circle class="cls-1" cx="144.39" cy="83.88" r="1.48"/><circle class="cls-1" cx="99.39" cy="113.88" r="1.48"/><circle class="cls-1" cx="144.39" cy="143.88" r="1.48"/><circle class="cls-1" cx="189.39" cy="113.88" r="1.48"/><rect class="cls-1" x="187.67" y="142.16" width="3.45" height="3.45"/><rect class="cls-1" x="187.67" y="82.16" width="3.45" height="3.45"/><rect class="cls-1" x="97.67" y="142.16" width="3.45" height="3.45"/><rect class="cls-1" x="97.67" y="82.16" width="3.45" height="3.45"/><rect class="cls-3" x="105.37" y="89.19" width="78.33" height="49.77"/><polygon class="cls-1" points="183.69 124.25 174.99 132.96 151.43 109.41 141.52 119.32 125.71 103.51 105.36 123.86 105.36 138.96 183.69 138.96 183.69 124.25"/><circle class="cls-1" cx="167.47" cy="103.31" r="5.53"/><path class="cls-10" d="M381.75,439.8s-5.95,11.16-6.7,28.26" transform="translate(-88.28 -225.32)"/><path class="cls-10" d="M364.15,447.54s1.79,9.49,7,16.38" transform="translate(-88.28 -225.32)"/><path class="cls-10" d="M388.81,486.73s9,29.56,28.56,38.27" transform="translate(-88.28 -225.32)"/><path class="cls-11" d="M412.47,433.22s-.85,6.45-7.05,6.9a27.47,27.47,0,0,0-2.75-4.61A86.58,86.58,0,0,1,412.47,433.22Z" transform="translate(-88.28 -225.32)"/><path class="cls-3" d="M425.68,433.68s10.37,1.26,14.71-12.65.93-24.41-16.24-29.47c-9.51-2.8-19-.54-22.46,6.66-2.94,6.17-1.55,11.3-2.23,13.37-.76,2.32-7.77,4.29-7.77,5.88,0,1.32,3.88,3.56,3.88,3.56l-1.14,3.45,1.08.57s-2,7.8-1.08,10.54c.67,2,18.23,2.84,19.61-2.13" transform="translate(-88.28 -225.32)"/><path class="cls-6" d="M401.78,403.28s3.43.85,4.37,2.66" transform="translate(-88.28 -225.32)"/><path class="cls-11" d="M402.38,411.18c-.14,1,.09,1.87.52,1.94s.91-.7,1.05-1.71-.08-1.88-.51-1.94S402.53,410.17,402.38,411.18Z" transform="translate(-88.28 -225.32)"/><path class="cls-6" d="M395.51,425.05s5.58,2.15,7.66.85" transform="translate(-88.28 -225.32)"/><path class="cls-6" d="M397.47,410.39c-.41,2.23.09,4.2,1.12,4.39s2.2-1.47,2.62-3.7-.09-4.2-1.12-4.39S397.89,408.15,397.47,410.39Z" transform="translate(-88.28 -225.32)"/><path class="cls-11" d="M440.84,399a16.51,16.51,0,0,0-6.51-10.06,30.48,30.48,0,0,0-12.58-5.14s3.32,1.44,4.57,3.35c0,0-8.57-6.44-18.74-2.21s-8.92,15.22-8.92,15.22l1.49-2.87s-.17,3.43,1.63,4.68a22.52,22.52,0,0,1,2.18-4.8s2.7,8.12,10.13,10.86a5.87,5.87,0,0,1-.11-4s4.11,8.92,2.91,13.26l1.32,2.29s4.73-4.8,8.57-.8c2.21,2.29-4.23,11-5.14,11l3.88,5.72s9.72,1.38,15.32-9.14,4.23-15,4.23-15a13.91,13.91,0,0,1,2.06,4S448.73,404,440.84,399Z" transform="translate(-88.28 -225.32)"/><path class="cls-3" d="M418,420.6s3-10.09,9.38-6.53,1.82,8.93-.46,11-4,5.83-5.49,5.83-1.83-1.82-1.83-1.82" transform="translate(-88.28 -225.32)"/><line class="cls-6" x1="312.93" y1="185.76" x2="330.73" y2="189.46"/></svg>