<svg id="Layer_1" data-name="Layer 1" xmlns="http://www.w3.org/2000/svg" viewBox="0 0 191.46 187.15"><defs><style>.cls-1{fill:#e94257;}.cls-2{fill:#fff;}</style></defs><title>personal-logo</title><polygon class="cls-1" points="0 0 67.64 0 83.24 53.43 66.15 80.14 0 0"/><path class="cls-1" d="M302.62,420.94V533.08H272.35V473.92s-2-8.56,4.28-19.26S302.62,420.94,302.62,420.94Z" transform="translate(-183.61 -345.94)"/><path class="cls-2" d="M267.76,532H240.1v-69.4c.22-1.25.57-3,1.07-5,.79-3.11,1.62-5.45,2-6.62.31-.85.59-1.6.8-2.14,0,0,.74-1.92,1.6-3.85,1-2.14,2.51-5.19,6.42-12.23,1.16-2.09,2.24-4,2.82-5,0,0,2.35-4.11,4.9-8.38,2.88-4.83,21.61-33.91,47.77-73.49h67.57l-78.88,75.7c-15.52,16-24.79,30.26-26.75,37.15a63.13,63.13,0,0,0-1.51,6.84c-.55,3.59-.53,5.87-.52,12.67,0,11.06-.05,7.63,0,14.5.05,6.07.11,10.57.12,10.84C267.62,509.65,267.72,518.76,267.76,532Z" transform="translate(-183.61 -345.94)"/></svg>